<svg width="134" height="36" viewBox="0 0 134 36" fill="none" xmlns="http://www.w3.org/2000/svg">
<path fill-rule="evenodd" clip-rule="evenodd" d="M39.4148 26.6209V10.3113H41.5347L51.6109 23.4367V10.3113H53.6261V26.6209H51.5062L41.43 13.3661V26.6209H39.4148ZM70.0359 25.9737C68.7011 26.4656 67.2617 26.7245 65.7437 26.7245C59.7765 26.7245 56.7929 23.9027 56.7929 18.2331C56.7929 12.8743 59.6718 10.1819 65.4296 10.1819C67.0785 10.1819 68.6226 10.4149 70.0359 10.855V12.6672C68.6226 12.1235 67.157 11.8646 65.6652 11.8646C61.1636 11.8646 58.9128 13.9875 58.9128 18.1814C58.9128 22.7118 61.1374 24.9641 65.5605 24.9641C66.2671 24.9641 67.0523 24.8605 67.916 24.6793V19.2169H70.0359V25.9737ZM73.4382 20.3301V10.3113H75.5581V20.3301C75.5581 23.4626 77.1285 25.0417 80.2952 25.0417C83.4359 25.0417 85.0324 23.4626 85.0324 20.3301V10.3113H87.1523V20.3301C87.1523 24.6016 84.8753 26.7504 80.2952 26.7504C75.7152 26.7504 73.4382 24.6016 73.4382 20.3301ZM93.0671 10.3113V24.9123H101.704V26.6209H90.9472V10.3113H93.0671ZM104.766 26.6209H102.541L110.733 8.1626L118.925 26.6209H116.569L114.45 21.495H109.006L109.582 19.7864H113.743L110.655 12.4083L104.766 26.6209ZM121.202 26.6209V10.3113H128.242C131.383 10.3113 132.953 11.6057 132.953 14.2204C132.953 16.3433 131.409 17.9225 128.347 18.9321L134 26.6209H131.2L125.965 19.2945V17.9225C129.106 17.4306 130.702 16.2397 130.702 14.324C130.702 12.8225 129.839 12.0717 128.085 12.0717H123.374V26.6209H121.202Z" fill="#5E5E66"/>
<path fill-rule="evenodd" clip-rule="evenodd" d="M0 5.96211L16.8809 0.0078125L34.2066 5.85856L31.4063 27.9412L16.8809 35.8889L2.59102 28.0448L0 5.96211Z" fill="#5E5E66"/>
<path fill-rule="evenodd" clip-rule="evenodd" d="M34.2066 5.85856L16.8809 0.0078125V35.8889L31.4063 27.9412L34.2066 5.85856Z" fill="#5E5E66"/>
<path fill-rule="evenodd" clip-rule="evenodd" d="M16.9071 4.20178L6.38599 27.3459L10.3118 27.2682L12.4317 22.0388H21.8274L24.1305 27.32L27.8731 27.3977L16.9071 4.20178ZM16.9333 11.6317L20.4926 18.984H13.8188L16.9333 11.6317Z" fill="white"/>
</svg>
