<svg width="56" height="64" viewBox="0 0 56 64" fill="none" xmlns="http://www.w3.org/2000/svg">
<g clip-path="url(#clip0)">
<path d="M27.7763 6.10352e-05C12.7153 6.10352e-05 0.343872 4.03429 0.343872 9.14427C0.343872 10.489 3.57113 29.5842 4.91587 37.1147C5.45385 40.6109 14.3291 45.4519 27.7763 45.4519C41.2237 45.4519 49.83 40.6109 50.6367 37.1147C51.9815 29.5842 55.2087 10.489 55.2087 9.14427C54.9399 4.03429 42.8372 6.10352e-05 27.7763 6.10352e-05ZM27.7763 39.2662C22.9353 39.2662 19.1701 35.5009 19.1701 30.66C19.1701 25.819 22.9353 22.0537 27.7763 22.0537C32.6173 22.0537 36.3825 25.819 36.3825 30.66C36.3825 35.2319 32.6173 39.2662 27.7763 39.2662ZM27.7763 11.8338C18.0943 11.8338 10.2948 10.2198 10.2948 8.06852C10.2948 5.9168 18.0943 4.30328 27.7763 4.30328C37.4583 4.30328 45.2577 5.9168 45.2577 8.06852C45.2577 10.22 37.4583 11.8338 27.7763 11.8338Z" fill="#5E5E66"/>
<path d="M47.6236 44.3762C47.0856 44.3762 46.8168 44.6452 46.8168 44.6452C46.8168 44.6452 40.0931 50.0242 27.9907 50.0242C15.888 50.0242 9.16446 44.6452 9.16446 44.6452C9.16446 44.6452 8.62648 44.3762 8.35749 44.3762C7.81951 44.3762 7.28174 44.6452 7.28174 45.4522V45.7209C8.3577 51.3687 9.16446 55.4029 9.16446 55.9409C9.97122 59.9751 18.0397 63.2026 27.7217 63.2026C37.4036 63.2026 45.4721 59.9751 46.2789 55.9409C46.2789 55.4029 47.0858 51.3687 48.1616 45.7209V45.4519C48.4306 44.914 48.1616 44.3762 47.6236 44.3762Z" fill="#5E5E66"/>
<path d="M27.7745 34.6942C30.1511 34.6942 32.0778 32.7676 32.0778 30.391C32.0778 28.0144 30.1511 26.0877 27.7745 26.0877C25.3979 26.0877 23.4713 28.0144 23.4713 30.391C23.4713 32.7676 25.3979 34.6942 27.7745 34.6942Z" fill="#5E5E66"/>
</g>
<defs>
<clipPath id="clip0">
<rect width="54.87" height="63.2434" fill="white" transform="translate(0.339355)"/>
</clipPath>
</defs>
</svg>
