<svg width="112" height="47" viewBox="0 0 112 47" fill="none" xmlns="http://www.w3.org/2000/svg">
<path d="M111.934 32.3046C111.663 29.6133 109.725 28.4131 107.907 28.4131C107.074 28.4131 106.411 28.6532 106.156 28.756L105.799 28.9105L105.494 29.1334C105.069 29.4588 104.321 29.9046 103.658 30.1446C103.624 29.5961 103.641 28.8931 103.726 28.3103L103.743 28.2075C104.236 23.4757 103.25 20.7157 100.82 20.0127C100.412 19.8927 99.9872 19.8413 99.5622 19.8413C98.0837 19.8413 96.7752 20.5613 95.9254 21.1784C95.2116 20.27 94.0221 19.7556 92.5266 19.7556C90.3002 19.7556 88.5157 20.8016 87.87 22.4814C87.802 22.6529 87.7169 22.9099 87.6149 23.2528C86.3064 20.3384 83.6382 19.2241 81.157 19.2241C78.8117 19.2241 76.5343 20.15 75.6845 20.8013C75.6506 20.8355 75.5997 20.8528 75.5487 20.9042C73.3223 22.4986 71.5888 24.5044 70.3652 26.9215C69.7704 24.8301 68.4619 22.8757 66.1166 21.4013L66.0826 21.3671C66.0146 21.3329 65.9636 21.2987 65.8956 21.2643C68.19 17.1497 70.2293 11.6981 69.0057 6.50363C67.714 0.96624 64.485 0.143188 62.6666 0.143188C61.9189 0.143188 61.1542 0.280437 60.3724 0.554714L60.3214 0.571926L60.2702 0.588916C56.8544 1.94331 55.3588 3.98351 55.0358 4.46366C54.696 4.97779 50.9571 10.7038 50.0565 19.0871C49.9546 20.0127 49.8524 20.9728 49.7505 21.9329C49.2238 21.1784 48.3571 20.4929 46.9804 20.0641C46.5556 19.9271 46.1137 19.8757 45.6719 19.8757C43.7854 19.8757 42.2558 21.0414 41.4401 21.8128L41.423 21.7956C40.7093 20.7327 39.5707 20.0985 38.3129 20.0471H38.0071C36.0017 20.0471 34.4042 20.9386 33.2316 21.9501C32.4839 20.6299 31.1071 19.8071 29.4928 19.8071C29.3568 19.8071 29.2378 19.8071 29.1188 19.8243H28.8469C26.6205 19.8243 24.8702 20.8872 24.1564 22.6529C24.1054 22.7901 24.0374 22.9614 23.9694 23.1842C22.219 20.99 19.9927 19.9613 17.0016 19.9613H16.7128C14.8433 19.9955 10.1867 20.7844 7.33145 27.2646C6.88959 28.2589 6.54967 29.2704 6.29483 30.2647C5.78325 30.0268 5.22654 29.904 4.66324 29.9046C3.1677 29.9046 2.04621 30.7618 1.50242 31.5677C1.06056 32.219 -0.350324 34.5333 0.346588 36.7963C0.720636 38.0135 1.58729 38.9394 2.81093 39.4193C3.88167 39.848 5.24115 40.2593 6.26093 40.5508C6.88959 41.9908 8.0113 43.6537 9.99966 45.1796C11.4103 46.2597 13.2117 46.8082 15.3361 46.8082C18.9051 46.8082 22.3549 45.2482 22.7289 45.0767L22.8647 45.0083L22.8986 44.9739C23.5785 45.6939 24.4793 46.2083 25.6178 46.4311C25.9578 46.4995 26.3996 46.5512 26.9095 46.5512C28.8469 46.5512 30.1895 45.5567 31.4302 43.6881C32.4498 45.2996 34.3023 46.208 36.4945 46.208H36.5116C36.6306 46.208 36.7496 46.2941 36.8857 46.2941C38.041 46.2941 39.4856 45.8826 40.6924 43.9282C41.6949 45.7453 43.5304 46.791 45.706 46.791C47.6432 46.791 49.3257 45.9854 49.6315 45.8312L49.6995 45.7967C50.3453 45.4538 50.8893 45.1454 51.3141 44.9053C52.7586 45.6767 54.9509 46.534 57.6362 46.534C58.0951 46.534 58.5538 46.5167 59.0127 46.4655L59.1317 46.4483L59.2507 46.4311C64.9439 45.2996 68.6487 43.9282 70.858 42.8823C72.4045 44.631 74.8689 46.3111 78.3869 46.5682C78.7778 46.6026 79.1855 46.6196 79.5764 46.6196C82.4655 46.6196 84.7768 45.7967 86.4764 44.8881C87.0202 45.471 87.7 46.0024 88.5837 46.3625C89.1105 46.5854 89.6543 46.6882 90.2151 46.6882C93.75 46.6882 95.3986 42.4366 95.8576 40.9966L96.7072 38.6995C97.455 39.5049 98.4068 40.1565 99.6134 40.4994C100.276 40.6881 100.99 40.7907 101.721 40.7907C105.613 40.7907 109.351 38.0135 109.946 37.5508C111.017 36.6593 112.189 34.8248 111.934 32.3046Z" fill="white"/>
<path d="M76.2812 33.4664C76.2812 33.4664 75.7884 31.7179 77.6239 28.3405C79.4423 24.9803 80.87 26.8147 80.87 26.8147C80.87 26.8147 82.4333 28.5292 80.6491 31.0835C78.8646 33.655 76.2812 33.4666 76.2812 33.4666V33.4664ZM62.2605 35.9009C60.1702 41.4211 55.0889 39.1754 55.0889 39.1754C55.0889 39.1754 54.5109 37.2039 56.1594 31.6665C57.808 26.1461 61.6826 28.3063 61.6826 28.3063C61.6826 28.3063 64.3508 30.3805 62.2605 35.9009ZM58.4708 12.7738C58.4708 12.7738 61.6316 4.45921 62.3966 8.50519C63.1613 12.5509 55.7687 24.5858 55.7687 24.5858C55.8365 21.8772 58.4708 12.774 58.4708 12.774V12.7738ZM13.2646 33.4662C13.4004 28.1174 16.8672 25.786 18.074 26.9517C19.2806 28.1174 18.8387 30.6375 16.5614 32.2148C14.3012 33.7921 13.2646 33.4662 13.2646 33.4662ZM109.047 32.5919C108.877 30.7918 107.263 31.4604 107.263 31.4604C107.263 31.4604 104.68 33.4834 102.402 33.2605C100.142 33.0204 100.856 27.9118 100.856 27.9118C100.856 27.9118 101.349 23.2144 100.006 22.8201C98.6635 22.4258 97.0149 24.0372 97.0149 24.0372C97.0149 24.0372 94.9587 26.3343 93.9897 29.249L93.718 29.3346C93.718 29.3346 94.0238 24.2087 93.667 23.043C93.3951 22.46 90.9479 22.5114 90.557 23.5401C90.149 24.5686 88.1946 31.7519 88.0587 34.7694C88.0587 34.7694 84.2349 38.0437 80.8868 38.5922C77.539 39.1236 76.7401 37.015 76.7401 37.015C76.7401 37.015 85.8324 34.4607 85.5095 27.1401C85.2035 19.8198 78.1847 22.5284 77.3859 23.1286C76.6211 23.7116 72.5254 26.1973 71.3188 33.1063C71.2847 33.3463 71.1999 34.375 71.1999 34.375C71.1999 34.375 67.6818 36.7579 65.7276 37.3921C65.7276 37.3921 71.1999 28.1002 64.5208 23.8658C61.4958 22.0315 59.0826 25.8888 59.0826 25.8888C59.0826 25.8888 68.1237 15.7397 66.1185 7.15057C65.1667 3.07062 63.1442 2.62489 61.2749 3.29348C58.4538 4.42501 57.383 6.07067 57.383 6.07067C57.383 6.07067 53.7292 11.4194 52.8793 19.3741C52.0298 27.3288 50.7891 36.9291 50.7891 36.9291C50.7891 36.9291 49.0555 38.6437 47.4581 38.7293C45.8606 38.8151 46.5743 33.9291 46.5743 33.9291C46.5743 33.9291 47.815 26.4715 47.7299 25.2202C47.6451 23.9686 47.56 23.2828 46.0815 22.8371C44.6199 22.3914 43.0053 24.2773 43.0053 24.2773C43.0053 24.2773 38.7738 30.7404 38.4168 31.7347L38.1959 32.1462L37.9749 31.8719C37.9749 31.8719 40.966 23.06 38.111 22.9401C35.2558 22.8029 33.3864 26.0772 33.3864 26.0772C33.3864 26.0772 30.1403 31.5632 30.0044 32.1806L29.7835 31.9061C29.7835 31.9061 31.1261 25.5287 30.8542 23.9514C30.5823 22.3744 29.1207 22.7001 29.1207 22.7001C29.1207 22.7001 27.2513 22.4772 26.7583 23.6943C26.2655 24.9115 24.4812 32.952 24.2603 35.5061C24.2603 35.5061 19.5866 38.8837 16.5105 38.9179C13.4345 38.9693 13.7574 36.9464 13.7574 36.9464C13.7574 36.9464 25.0248 33.0548 21.9488 25.3744C20.5723 23.4029 18.9577 22.7857 16.6975 22.8201C14.4204 22.8715 11.752 24.2601 9.91649 28.3917C9.04984 30.3633 8.69285 32.2318 8.69285 33.6548C8.69285 33.6548 6.58549 34.0663 5.51497 33.1577C4.44423 32.2662 3.83241 33.1577 3.83241 33.1577C3.83241 33.1577 1.96304 35.8493 3.78144 36.569C5.59984 37.2893 8.42095 37.9579 8.42095 37.9579C8.67601 39.1236 9.44073 41.0265 11.6671 42.7238C14.9981 45.2782 21.4221 42.3295 21.4221 42.3295L24.0562 40.7523C24.0562 40.7523 24.1413 43.1354 26.0616 43.4952C27.9822 43.8554 28.7808 43.461 32.1118 35.3007C34.0662 31.1175 34.2021 31.3403 34.2021 31.3403L34.423 31.2889C34.423 31.2889 32.9106 39.2778 33.4883 41.4381C34.0662 43.5983 36.5984 43.3754 36.5984 43.3754C36.5984 43.3754 37.9749 43.8723 39.0966 39.9122C40.2184 35.9521 42.3428 31.8205 42.3428 31.8205H42.6147C42.6147 31.8205 41.6798 39.7752 43.1075 42.3809C44.535 44.9869 48.2228 43.1523 48.2228 43.1523C48.2228 43.1523 50.8061 41.781 51.2138 41.3694C51.2138 41.3694 54.273 43.9754 58.6067 43.4952C68.2768 41.5751 71.7097 38.9693 71.7097 38.9693C71.7097 38.9693 73.3752 43.2038 78.5076 43.5981C84.3878 44.0438 87.5998 40.3065 87.5998 40.3065C87.5998 40.3065 87.5488 42.7238 89.6052 43.5811C91.6614 44.4381 93.0382 39.9122 93.0382 39.9122L96.4711 30.6375H96.7771C96.7771 30.6375 96.9471 36.5693 100.346 37.5635C103.762 38.5408 108.164 35.112 108.164 35.112C108.164 35.112 109.234 34.392 109.047 32.5919" fill="#5E5E66"/>
</svg>
