<svg width="124" height="33" viewBox="0 0 124 33" fill="none" xmlns="http://www.w3.org/2000/svg">
<g clip-path="url(#clip0)">
<path d="M73.5118 14.1436H76.7842V25.925H73.5118V24.3934C72.3431 26.1606 70.8238 26.2784 69.8888 26.2784C66.2658 26.2784 63.9284 23.4509 63.9284 20.0343C63.9284 16.4999 66.2658 13.7902 69.6551 13.7902C70.59 13.7902 72.3431 13.908 73.3949 15.6752V14.1436H73.5118ZM67.4345 20.0343C67.4345 21.9193 68.7201 23.3331 70.7069 23.3331C72.5768 23.3331 73.9793 21.9193 73.9793 20.0343C73.9793 18.1493 72.6937 16.7355 70.7069 16.7355C68.837 16.7355 67.4345 18.1493 67.4345 20.0343ZM83.2121 16.9712V25.925H79.9397V16.9712H78.6541V14.1436H79.9397V10.138H83.2121V14.1436H85.4326V16.9712H83.2121ZM93.1461 16.9712C92.328 16.2643 91.6268 16.1465 91.2762 16.1465C90.4581 16.1465 89.9906 16.4999 89.9906 17.089C89.9906 17.4424 90.1075 17.7958 91.0424 18.1493L91.8605 18.3849C92.7955 18.7384 94.1979 19.0918 94.7823 20.0343C95.1329 20.5056 95.3667 21.2124 95.3667 22.0371C95.3667 23.0975 95.016 24.1578 94.0811 24.9825C93.1461 25.8072 91.9774 26.2784 90.5749 26.2784C88.1207 26.2784 86.8351 25.1003 86.017 24.2756L87.77 22.2728C88.4713 22.9796 89.4062 23.6865 90.3412 23.6865C91.2762 23.6865 91.9774 23.2153 91.9774 22.3906C91.9774 21.6837 91.393 21.3303 90.9256 21.2124L90.2243 20.9768C89.4062 20.6234 88.4713 20.2699 87.77 19.5631C87.1857 18.974 86.8351 18.2671 86.8351 17.3246C86.8351 16.1465 87.4194 15.204 88.0038 14.6149C88.9388 13.908 90.1075 13.7902 91.0424 13.7902C91.8605 13.7902 93.263 13.908 94.7823 15.0861L93.1461 16.9712ZM100.275 15.6752C101.444 14.0258 103.08 13.7902 104.015 13.7902C107.404 13.7902 109.742 16.4999 109.742 20.0343C109.742 23.5687 107.404 26.2784 103.898 26.2784C103.197 26.2784 101.444 26.1606 100.158 24.3934V25.925H97.0028V6.13232H100.275V15.6752ZM99.9246 20.0343C99.9246 21.9193 101.21 23.3331 103.197 23.3331C105.067 23.3331 106.469 21.9193 106.469 20.0343C106.469 18.1493 105.184 16.7355 103.197 16.7355C101.21 16.7355 99.9246 18.1493 99.9246 20.0343ZM115.118 24.1578L109.508 14.1436H113.365L116.988 20.859L120.26 14.1436H124L114.65 32.1691H110.91L115.118 24.1578ZM63.1103 16.1465H54.9293V19.4452H59.2536C58.5523 21.6837 56.9161 23.2153 53.8775 23.2153C50.4882 23.2153 48.0339 20.3877 48.0339 16.9712C48.0339 13.5546 50.3714 10.6092 53.7606 10.6092C55.6306 10.6092 57.5005 11.5517 58.6692 13.0833L61.3572 11.3161C59.6042 8.84203 56.7993 7.42827 53.7606 7.42827C48.6183 7.42827 44.4109 11.6696 44.4109 16.9712C44.4109 22.2728 48.3846 26.514 53.7606 26.514C59.1367 26.514 63.1103 22.2728 63.1103 16.9712C63.2272 16.6177 63.1103 16.3821 63.1103 16.1465Z" fill="#5E5E66"/>
<path d="M29.2177 16.5H21.0367V18.8563H26.6465C25.8284 22.3907 23.2573 25.336 19.868 26.5141L6.42788 12.9656C7.83033 8.84213 11.8039 5.8968 16.3619 5.8968C19.868 5.8968 23.0235 7.664 25.0103 10.3737L26.7634 8.84213C24.426 5.66117 20.6861 3.54053 16.3619 3.54053C10.2846 3.54053 5.1423 7.89962 3.85672 13.6725L19.2837 29.2238C24.8935 27.8101 29.2177 22.6263 29.2177 16.5ZM3.5061 16.6178C3.5061 19.9166 4.79168 23.0976 7.24597 25.5716C9.70026 28.0457 12.9726 29.3417 16.1282 29.3417L3.5061 16.6178Z" fill="white"/>
<path d="M16.3619 0.00683594C7.36287 0.00683594 0 7.42908 0 16.5007C0 25.5723 7.36287 32.9946 16.3619 32.9946C25.361 32.9946 32.7238 25.5723 32.7238 16.5007C32.7238 7.42908 25.361 0.00683594 16.3619 0.00683594ZM7.24599 25.6902C4.79171 23.2161 3.50613 19.9173 3.50613 16.7363L16.2451 29.4602C12.9727 29.3424 9.70028 28.1642 7.24599 25.6902ZM19.1668 29.1067L3.85674 13.6732C5.14232 7.90033 10.2846 3.54124 16.3619 3.54124C20.6861 3.54124 24.426 5.66188 26.7634 8.84284L25.0104 10.3744C23.0236 7.66471 19.868 5.89751 16.3619 5.89751C11.804 5.89751 7.94722 8.84284 6.4279 12.9663L19.868 26.5149C23.2573 25.3367 25.8285 22.3914 26.6466 18.857H21.0368V16.5007H29.2177C29.2177 22.627 24.8935 27.8108 19.1668 29.1067Z" fill="#5E5E66"/>
</g>
<defs>
<clipPath id="clip0">
<rect width="124" height="33" fill="white"/>
</clipPath>
</defs>
</svg>
