<svg width="101" height="91" viewBox="0 0 101 91" fill="none" xmlns="http://www.w3.org/2000/svg">
<path d="M50.9527 57.6319H48.4239L48.4355 76.4818H58.6782V74.1502H50.9643L50.9527 57.6319Z" fill="#5E5E66"/>
<path d="M68.4243 73.1746C68.019 73.5956 67.5325 73.9299 66.9941 74.1573C66.4557 74.3846 65.8768 74.5002 65.2924 74.497C63.3668 74.497 62.5896 73.5458 62.5896 72.3046C62.5896 70.437 63.8888 69.5438 66.6496 69.5438C67.2476 69.5462 67.8447 69.5927 68.4359 69.683V73.1746H68.4243ZM65.8028 61.7487C63.8369 61.7426 61.9315 62.4284 60.4204 63.6859L61.3136 65.2403C62.346 64.6371 63.6104 64.0339 65.4316 64.0339C67.508 64.0339 68.4243 65.1011 68.4243 66.8875V67.8039C67.8449 67.713 67.2593 67.6664 66.6728 67.6647C62.2416 67.6647 59.9912 69.219 59.9912 72.467C59.9912 75.3786 61.7776 76.8402 64.4804 76.8402C66.3016 76.8402 68.0532 76.005 68.6563 74.6478L69.1203 76.4922H70.9067V66.8411C70.8951 63.7903 69.5727 61.7487 65.8028 61.7487Z" fill="#5E5E66"/>
<path d="M79.0662 74.5875C78.115 74.5875 77.2798 74.4715 76.6534 74.1815V65.47C77.5118 64.7508 78.579 64.2288 79.9362 64.2288C82.3838 64.2288 83.3234 65.9572 83.3234 68.7527C83.3234 72.7199 81.8038 74.5875 79.0662 74.5875ZM80.1334 61.758C79.4771 61.7539 78.8275 61.8894 78.2276 62.1554C77.6276 62.4213 77.0911 62.8118 76.6534 63.3008V60.8648L76.6418 57.64H74.171L74.1826 76.0259C75.4238 76.5479 77.1174 76.8263 78.9618 76.8263C83.683 76.8263 85.9565 73.8103 85.9565 68.6019C85.9449 64.484 83.8453 61.758 80.1334 61.758Z" fill="#5E5E66"/>
<path d="M23.4191 59.6769C25.6579 59.6769 27.1079 60.4193 28.0475 61.1733L29.1378 59.2825C27.6647 57.9833 25.6695 57.2874 23.5351 57.2874C18.1527 57.2874 14.3828 60.5701 14.3828 67.1937C14.3828 74.1304 18.4543 76.8332 23.1059 76.8332C25.0304 76.8376 26.9373 76.4673 28.7203 75.7428L28.6623 68.3305V66.0035H21.7603V68.3351H26.1683L26.2263 73.9611C25.6463 74.2511 24.6487 74.4831 23.2915 74.4831C19.5563 74.4831 17.0507 72.1283 17.0507 67.1751C17.0391 62.1292 19.6259 59.6816 23.4191 59.6816" fill="#5E5E66"/>
<path d="M41.2272 57.6296H38.7564L38.768 60.7964V71.7351C38.768 74.7858 40.0904 76.8274 43.8604 76.8274C44.3701 76.8287 44.8789 76.7821 45.38 76.6882V74.4715C44.9999 74.529 44.6159 74.5562 44.2316 74.5527C42.1552 74.5527 41.2388 73.4855 41.2388 71.6991V64.1592H45.38V62.0944H41.2388L41.2272 57.6284V57.6296Z" fill="#5E5E66"/>
<path d="M32.4798 76.4817H34.9506V62.0978H32.4798V76.4817Z" fill="#5E5E66"/>
<path d="M32.4798 60.1143H34.9506V57.6435H32.4798V60.1143Z" fill="#5E5E66"/>
<path d="M69.4835 34.5399L67.4466 28.2818C67.4358 28.2237 67.4191 28.167 67.3967 28.1124L63.3112 15.5323C63.2021 15.2066 62.9932 14.9236 62.7142 14.7233C62.4352 14.523 62.1003 14.4156 61.7568 14.4164H61.7475C61.4034 14.4143 61.0677 14.5228 60.7898 14.7257C60.5118 14.9287 60.3064 15.2155 60.2036 15.5439L56.313 27.522H44.0333L40.1357 15.5439C40.0326 15.2161 39.8271 14.9299 39.5495 14.7274C39.2718 14.5249 38.9366 14.4167 38.5929 14.4187C38.2464 14.4176 37.9084 14.5257 37.6269 14.7277C37.3453 14.9297 37.1346 15.2153 37.0246 15.5439L32.9438 28.1368L32.9299 28.1692L30.8558 34.5411C30.7021 35.0105 30.7014 35.5167 30.8538 35.9865C31.0062 36.4564 31.3038 36.8658 31.7037 37.1557L49.6198 50.1754C49.7795 50.291 49.9718 50.3527 50.1689 50.3517C50.3659 50.3507 50.5576 50.2869 50.716 50.1696L68.6379 37.1557C69.0374 36.8652 69.3345 36.4555 69.4864 35.9854C69.6384 35.5154 69.6374 35.0093 69.4835 34.5399ZM57.6597 29.3849H64.6278L53.8399 43.2143L52.688 44.6898L55.5741 35.8101L57.6597 29.3849ZM42.6831 29.3849L47.6548 44.6864L35.7196 29.3849H42.6831ZM61.7603 16.7619L65.2542 27.522H58.2652L61.7603 16.7619ZM55.7098 29.378L55.0869 31.2966L50.1731 46.4148L44.6365 29.378H55.7098ZM38.5802 16.7619L42.081 27.522H35.0921L38.5802 16.7619ZM32.7941 35.6547C32.7116 35.5949 32.6502 35.5104 32.6187 35.4135C32.5872 35.3166 32.5873 35.2121 32.619 35.1153L34.1525 30.4045L45.3835 44.8024L32.7941 35.6547ZM67.5463 35.6547L54.9558 44.7977L66.1868 30.4057L67.7192 35.1141C67.7513 35.2109 67.7519 35.3154 67.7209 35.4126C67.6898 35.5097 67.6287 35.5945 67.5463 35.6547Z" fill="#5E5E66"/>
</svg>
