<svg width="111" height="67" viewBox="0 0 111 67" fill="none" xmlns="http://www.w3.org/2000/svg">
<path d="M26.2215 17.3319H46.9971V18.9832H28.1259V31.4112H45.8717V33.0625H28.1259V46.7072H47.2135V48.3585H26.2215V17.3319ZM48.8582 17.3319H51.0656L60.8475 30.9767L70.8457 17.3319L84.445 0L62.1027 32.4107L73.6158 48.3585H71.3219L60.8475 33.8447L50.3298 48.3585H48.0791L59.6789 32.4107L48.8582 17.3319ZM74.4382 18.9832V17.3319H98.1137V18.9832H87.2065V48.3585H85.3021V18.9832H74.4382ZM0.230347 17.3319H2.61088L35.4371 66.4533L21.8716 48.3585L2.22134 19.6785L2.13478 48.3585H0.230347V17.3319ZM97.9219 46.2089C97.5328 46.2089 97.2409 45.9074 97.2409 45.5178C97.2409 45.1283 97.5328 44.8268 97.9219 44.8268C98.3156 44.8268 98.6028 45.1283 98.6028 45.5178C98.6028 45.9074 98.3156 46.2089 97.9219 46.2089ZM99.7932 44.3908H100.812C100.826 44.9427 101.229 45.3138 101.822 45.3138C102.484 45.3138 102.86 44.9149 102.86 44.1682V39.4374H103.897V44.1728C103.897 45.5178 103.119 46.2924 101.831 46.2924C100.622 46.2924 99.7932 45.541 99.7932 44.3908ZM105.254 44.3305H106.283C106.371 44.9659 106.991 45.3694 107.885 45.3694C108.719 45.3694 109.33 44.9381 109.33 44.3444C109.33 43.8342 108.941 43.5281 108.057 43.3194L107.195 43.1107C105.986 42.8278 105.435 42.2434 105.435 41.2601C105.435 40.0681 106.408 39.275 107.867 39.275C109.224 39.275 110.215 40.0681 110.275 41.1952H109.266C109.168 40.5783 108.631 40.1934 107.853 40.1934C107.033 40.1934 106.486 40.5876 106.486 41.1905C106.486 41.6683 106.838 41.9419 107.709 42.146L108.446 42.3269C109.817 42.6469 110.382 43.2035 110.382 44.2099C110.382 45.49 109.391 46.2924 107.807 46.2924C106.324 46.2924 105.328 45.5271 105.254 44.3305Z" fill="#5E5E66"/>
</svg>
