<svg width="48" height="44" viewBox="0 0 48 44" fill="none" xmlns="http://www.w3.org/2000/svg">
<path d="M0.141357 21.9519C0.141357 25.6278 3.65927 29.0592 9.20529 30.9935C8.09777 36.6823 9.00692 41.2677 12.0432 43.0543C15.164 44.8908 19.8134 43.6196 24.2264 39.6835C28.528 43.4606 32.8754 44.947 35.9091 43.1553C39.027 41.3136 39.9752 36.4173 38.8371 30.5508C44.6138 28.6022 47.845 25.6762 47.845 21.9519C47.845 18.3613 44.3207 15.2551 38.8493 13.3332C40.0746 7.2243 39.0364 2.75026 35.8744 0.889828C32.8259 -0.903841 28.4279 0.659498 24.0631 4.53532C19.522 0.421515 15.1675 -0.834398 12.0089 1.0312C8.96324 2.83004 8.09421 7.49882 9.20529 13.2929C3.84639 15.1992 0.141357 18.3758 0.141357 21.9519Z" fill="white"/>
<path d="M37.6906 15.2418C37.2397 15.084 36.7849 14.9378 36.3268 14.8033C36.4027 14.4883 36.473 14.1719 36.5375 13.8543C37.5698 8.74108 36.8949 4.62191 34.5898 3.26595C32.3799 1.96546 28.7654 3.32142 25.1149 6.5627C24.7552 6.88281 24.4035 7.21215 24.0601 7.5504C23.8301 7.32549 23.5961 7.10494 23.3581 6.88887C19.5323 3.42282 15.6976 1.9624 13.395 3.32238C11.1871 4.6265 10.5331 8.49908 11.4625 13.3448C11.555 13.8247 11.6594 14.3021 11.7756 14.7765C11.233 14.9338 10.709 15.1014 10.2076 15.2797C5.72242 16.8752 2.85791 19.3759 2.85791 21.9696C2.85791 24.6486 5.93278 27.3357 10.6047 28.9648C10.9835 29.0963 11.3655 29.2181 11.7503 29.3302C11.6253 29.8414 11.5143 30.356 11.4175 30.8735C10.5314 35.635 11.2234 39.4158 13.4255 40.7119C15.7 42.05 19.5173 40.6746 23.2346 37.3593C23.5284 37.0972 23.8233 36.8192 24.1186 36.5279C24.4905 36.894 24.8724 37.2495 25.2638 37.594C28.8644 40.7553 32.4204 42.0319 34.6206 40.7323C36.893 39.3901 37.6313 35.3286 36.6725 30.387C36.5994 30.0095 36.5141 29.6241 36.4185 29.2315C36.6866 29.1508 36.9496 29.0674 37.2063 28.9805C42.0631 27.3387 45.2229 24.6844 45.2229 21.9696C45.2229 19.3665 42.2661 16.8489 37.6906 15.2418Z" fill="#5E5E66"/>
<path d="M36.6372 27.2278C36.4057 27.306 36.1679 27.3816 35.9257 27.4549C35.3894 25.723 34.6657 23.8813 33.7804 21.9788C34.6254 20.1212 35.321 18.3032 35.8422 16.5825C36.2755 16.7106 36.6963 16.8455 37.1016 16.988C41.0221 18.3648 43.4134 20.4009 43.4134 21.9696C43.4134 23.6406 40.8307 25.81 36.6374 27.2278H36.6372ZM34.8973 30.7457C35.3212 32.9307 35.3818 34.9064 35.1009 36.4508C34.8485 37.8385 34.3412 38.7636 33.7138 39.1342C32.3787 39.9227 29.5234 38.8977 26.4444 36.1942C26.0913 35.8843 25.7357 35.5533 25.379 35.2033C26.5728 33.871 27.7658 32.3222 28.9302 30.6024C30.9783 30.417 32.9132 30.1138 34.668 29.7C34.7542 30.0558 34.8311 30.4046 34.8973 30.7457ZM17.3011 38.998C15.9968 39.468 14.9579 39.4814 14.3299 39.112C12.9935 38.3257 12.4382 35.2897 13.1958 31.2178C13.2859 30.7366 13.3891 30.258 13.5052 29.7826C15.2404 30.1742 17.1613 30.456 19.2143 30.6259C20.3863 32.3088 21.6138 33.8557 22.8509 35.2103C22.588 35.4698 22.3189 35.7227 22.0438 35.9687C20.4 37.4348 18.7529 38.4748 17.3013 38.998H17.3011ZM11.1902 27.2174C9.12441 26.497 7.41842 25.5608 6.24903 24.5392C5.19833 23.6209 4.66772 22.7094 4.66772 21.9696C4.66772 20.3957 6.96769 18.388 10.8036 17.0234C11.2851 16.8529 11.7713 16.6968 12.2617 16.5553C12.7919 18.3147 13.4874 20.1543 14.3266 22.0145C13.4765 23.9025 12.7711 25.7714 12.236 27.5515C11.8848 27.4489 11.5361 27.3375 11.1902 27.2174ZM13.2387 12.9901C12.4425 8.83826 12.9712 5.70642 14.3018 4.92054C15.7193 4.08339 18.8532 5.27713 22.1564 8.26971C22.3675 8.46101 22.5796 8.66131 22.792 8.86849C21.5613 10.217 20.3451 11.7522 19.1832 13.4254C17.1907 13.6138 15.2833 13.9164 13.5299 14.3218C13.4219 13.8804 13.3248 13.4363 13.2387 12.99V12.9901ZM31.513 17.5943C31.0989 16.8643 30.6694 16.1436 30.2248 15.4325C31.5766 15.6066 32.8716 15.8381 34.0877 16.1214C33.7226 17.3153 33.2676 18.5638 32.7317 19.8436C32.3402 19.0856 31.9339 18.3357 31.513 17.5943ZM24.0608 10.1881C24.8955 11.1108 25.7315 12.1411 26.5539 13.2589C24.8858 13.1785 23.2149 13.1781 21.5467 13.2578C22.3698 12.1503 23.2129 11.1215 24.0608 10.1881ZM16.5607 17.6069C16.1451 18.3424 15.7464 19.0878 15.3649 19.8423C14.8379 18.5669 14.3869 17.3129 14.0187 16.1019C15.2275 15.8258 16.5165 15.6003 17.8595 15.4291C17.4099 16.1445 16.9769 16.8707 16.5607 17.6069ZM17.8981 28.6419C16.5107 28.4839 15.2022 28.2698 13.9938 28.0014C14.3678 26.769 14.8287 25.4881 15.367 24.1853C15.7501 24.9404 16.1506 25.6861 16.568 26.422C16.994 27.1726 17.4375 27.9128 17.8981 28.6419ZM24.1108 33.8815C23.2531 32.9371 22.3975 31.8925 21.5619 30.769C22.373 30.8015 23.2 30.818 24.0405 30.818C24.9041 30.818 25.7578 30.7983 26.5979 30.76C25.773 31.904 24.9399 32.9501 24.1108 33.8815ZM32.749 24.1189C33.3152 25.4358 33.7926 26.7099 34.1717 27.9214C32.9432 28.2074 31.6171 28.4378 30.2197 28.6088C30.6675 27.8845 31.1012 27.1511 31.5204 26.4092C31.9465 25.6551 32.3561 24.8915 32.749 24.1189ZM29.9525 25.4867C29.3108 26.6242 28.633 27.7401 27.9201 28.8326C26.6632 28.9243 25.3642 28.9715 24.0405 28.9715C22.7223 28.9715 21.4398 28.9296 20.2048 28.8479C19.4735 27.7579 18.7828 26.6401 18.1344 25.4969C17.4889 24.3597 16.886 23.1979 16.3269 22.014C16.8846 20.8297 17.4856 19.6673 18.1289 18.5292V18.5295C18.772 17.3912 19.4572 16.2781 20.1831 15.1928C21.443 15.0956 22.7348 15.0447 24.0407 15.0447C25.3524 15.0447 26.6459 15.096 27.9055 15.194C28.624 16.2776 29.3049 17.3868 29.9467 18.5194C30.5922 19.655 31.2013 20.8117 31.7731 21.9878C31.2072 23.1758 30.6 24.3428 29.9527 25.4867H29.9525ZM33.6861 4.86564C35.1046 5.70049 35.6564 9.06687 34.7651 13.4816C34.7067 13.7692 34.6432 14.0557 34.5746 14.3409C32.8171 13.9271 30.9084 13.6192 28.9101 13.4278C27.7459 11.7365 26.5398 10.1986 25.329 8.86753C25.6463 8.55543 25.9711 8.25142 26.3032 7.95578C29.4309 5.17842 32.3541 4.08186 33.6861 4.86564Z" fill="white"/>
<path d="M24.0404 18.1096C26.1298 18.1096 27.8234 19.8379 27.8234 21.9696C27.8234 24.1015 26.1298 25.8297 24.0404 25.8297C21.9511 25.8297 20.2573 24.1015 20.2573 21.9696C20.2573 19.8379 21.9511 18.1096 24.0404 18.1096Z" fill="#5E5E66"/>
</svg>
